<?xml version="1.0" encoding="UTF-8"?>
<!DOCTYPE svg PUBLIC "-//W3C//DTD SVG 1.1//EN" "http://www.w3.org/Graphics/SVG/1.1/DTD/svg11.dtd">
<svg version="1.1" xmlns="http://www.w3.org/2000/svg" xmlns:xlink="http://www.w3.org/1999/xlink" x="0" y="0" width="250" height="250" viewBox="0, 0, 250, 250">
  <g id="Layer_1">
    <path d="M78.245,247.978 C55.926,241.967 47.586,232.331 52.676,218.437 C53.965,214.921 55.337,211.057 55.726,209.851 C56.208,208.354 54.409,206.676 50.05,204.558 C44.941,202.076 43.538,200.575 43.018,197.032 C42.661,194.599 42.743,192.595 43.199,192.581 C44.979,192.523 82.183,210.397 82.183,211.309 C82.183,211.842 80.553,213.15 78.561,214.216 C75.444,215.884 74.225,215.815 69.824,213.716 C63.699,210.795 62.027,211.535 62.027,217.168 C62.027,226.666 71.647,229.82 93.5,227.487 C112.755,225.43 122.497,228.111 122.497,235.466 C122.497,239.222 114.336,245.625 106.635,247.912 C97.333,250.674 88.334,250.695 78.245,247.978 z M107.565,241.388 C110.043,240.631 113.206,238.756 114.594,237.222 C117.026,234.535 116.967,234.376 112.974,232.858 C109.955,231.71 104.857,231.735 94.183,232.948 C76.356,234.974 65.686,233.307 59.986,227.608 C55.457,223.079 54.771,226.31 59.094,231.807 C66.747,241.536 91.244,246.378 107.565,241.388 z M64.008,198.642 L40.793,187.845 L44.407,179.788 C46.394,175.356 48.491,171.205 49.066,170.562 C49.852,169.683 75.893,190.944 88.543,202.794 C89.345,203.545 89.345,205.095 88.543,206.736 C87.319,209.242 85.524,208.65 64.008,198.642 z M71.198,183.832 L50.853,166.234 L54.118,159.188 C55.913,155.314 57.835,152.112 58.389,152.073 C59.486,151.997 91.741,179.417 95.698,183.788 C97.987,186.318 97.937,186.91 94.835,193.952 L91.542,201.43 L71.198,183.832 z M79.057,165.127 L59.374,147.88 L62.5,140.763 C64.219,136.848 66.142,133.63 66.773,133.611 C67.944,133.577 106.659,166.711 106.659,167.747 C106.659,169.419 100.409,182.517 99.643,182.451 C99.147,182.409 89.883,174.613 79.057,165.127 z M93.403,151.758 C85.74,145.127 76.798,137.416 73.533,134.621 L67.595,129.538 L71.384,122.062 C74.791,115.337 75.417,114.788 77.598,116.608 C78.932,117.722 87.475,125.031 96.581,132.851 C105.687,140.671 113.741,147.584 114.478,148.214 C115.792,149.336 109.958,163.812 108.191,163.812 C107.721,163.812 101.066,158.388 93.403,151.758 z M103.741,135.316 C97.781,130.005 89.145,122.38 84.551,118.372 L76.197,111.086 L79.477,104.335 C81.281,100.621 83.114,97.588 83.55,97.593 C83.986,97.597 93.242,105.375 104.119,114.874 L123.895,132.147 L120.749,138.621 C119.019,142.182 116.923,145.068 116.091,145.035 C115.259,145.002 109.701,140.628 103.741,135.316 z M105.22,111.879 C86.591,95.537 83.266,91.665 86.267,89.81 C87.466,89.069 130.342,107.989 132.81,110.348 C133.336,110.85 131.716,115.236 129.211,120.095 L124.656,128.929 L105.22,111.879 z M111.023,96.718 C79.768,82.118 53.689,69.665 53.069,69.044 C51.756,67.732 82.538,0.761 84.801,0.007 C86.962,-0.713 203.098,53.371 203.125,55.11 C203.138,55.902 196.177,71.614 187.658,90.024 C177.238,112.543 171.462,123.46 170.009,123.381 C168.821,123.316 142.277,111.318 111.023,96.718 z M177.207,120.055 C177.207,119.77 183.335,106.375 190.825,90.288 C200.983,68.468 204.694,61.748 205.435,63.833 C205.981,65.371 207.281,68.759 208.324,71.362 C210.147,75.913 209.848,76.851 200.553,95.756 C190.945,115.295 190.843,115.432 184.046,117.994 C180.285,119.411 177.207,120.339 177.207,120.055 z M48.356,54.293 L45.891,46.472 L55.157,27.035 L64.423,7.598 L71.144,5.257 C74.84,3.97 77.864,3.411 77.864,4.016 C77.864,5.132 55.251,54.219 52.382,59.332 C51.013,61.771 50.518,61.151 48.356,54.293 z M146.253,24.061 C135.958,19.276 127.078,14.906 126.518,14.35 C125.959,13.793 127.291,12.311 129.478,11.056 C133.319,8.852 133.961,9.006 148.257,15.581 C156.398,19.325 163.701,23.031 164.487,23.817 C165.272,24.602 165.702,26.936 165.442,29.003 L164.97,32.761 L146.253,24.061 z" fill="#000000" id="path4869"/>
  </g>
</svg>
